<svg height="479pt" viewBox="0 -56 479.88795 479" width="479pt" xmlns="http://www.w3.org/2000/svg" xmlns:xlink="http://www.w3.org/1999/xlink"><linearGradient id="a"><stop offset="0" stop-color="#039bca"/><stop offset=".207" stop-color="#3a7ac4"/><stop offset=".598" stop-color="#9c3fb9"/><stop offset=".871" stop-color="#da1ab2"/><stop offset="1" stop-color="#f20baf"/></linearGradient><linearGradient id="b" gradientUnits="userSpaceOnUse" x1="-16.107281" x2="482.908719" xlink:href="#a" y1="256.443991" y2="256.443991"/><linearGradient id="c" gradientUnits="userSpaceOnUse" x1="-16.107281" x2="482.908719" xlink:href="#a" y1="244.443991" y2="244.443991"/><linearGradient id="d" gradientUnits="userSpaceOnUse" x1="-16.107281" x2="482.908719" xlink:href="#a" y1="272.443991" y2="272.443991"/><linearGradient id="e" gradientUnits="userSpaceOnUse" x1="-16.107281" x2="482.908719" xlink:href="#a" y1="184.443991" y2="184.443991"/><path d="m111.894531 176.445312c-44.183593 0-80 35.816407-80 80 0 44.179688 35.816407 80 80 80 44.179688 0 80-35.820312 80-80-.050781-44.164062-35.839843-79.953124-80-80zm0 144c-35.347656 0-64-28.65625-64-64 0-35.347656 28.652344-64 64-64 35.34375 0 64 28.652344 64 64-.042969 35.328126-28.671875 63.960938-64 64zm0 0" fill="url(#b)"/><path d="m125.101562 210.371094c-3.355468-2.875-8.40625-2.484375-11.28125.871094l-48 56c-1.988281 2.152343-2.640624 5.222656-1.699218 7.996093.9375 2.773438 3.320312 4.816407 6.207031 5.316407s5.816406-.613282 7.636719-2.910157l48-56c2.871094-3.351562 2.484375-8.398437-.863282-11.273437zm0 0" fill="url(#c)"/><path d="m137.75 243.316406-40 48c-2.832031 3.394532-2.378906 8.441406 1.015625 11.273438 3.390625 2.832031 8.4375 2.375 11.269531-1.019532l40-48c2.832032-3.390624 2.378906-8.4375-1.015625-11.269531-3.390625-2.832031-8.4375-2.378906-11.269531 1.015625zm0 0" fill="url(#d)"/><path d="m436.300781 167.964844-93.464843-163.519532c-1.429688-2.480468-4.078126-4.007812-6.941407-4h-64c-4.421875 0-8 3.582032-8 8v32c0 4.417969 3.578125 8 8 8h39.542969l55.480469 96.046876c-24.726563.203124-48.675781 8.628906-68.082031 23.953124h-117.886719c-19.40625-15.324218-43.355469-23.75-68.082031-23.953124l55.480468-96.046876h39.546875c4.417969 0 8-3.582031 8-8v-32c0-4.417968-3.582031-8-8-8h-64c-2.867187-.007812-5.515625 1.519532-6.945312 4l-93.464844 163.519532c-39.117187 30.226562-53.769531 82.539062-36.042969 128.6875 17.730469 46.144531 63.636719 75.195312 112.929688 71.457031 49.292968-3.734375 90.296875-39.371094 100.867187-87.664063h37.308594c10.53125 48.34375 51.550781 84.046876 100.890625 87.800782 49.335938 3.757812 95.289062-25.320313 113.019531-71.515625 17.726563-46.195313 3.027344-98.550781-36.15625-128.765625zm-120.25-135.519532h-36.15625v-16h51.359375l77.6875 135.894532c-7.300781-2.878906-14.886718-4.972656-22.632812-6.246094l-63.328125-109.648438c-1.429688-2.476562-4.070313-4-6.929688-4zm-57.503906 200h-37.308594c-1.214843-5.449218-2.839843-10.796874-4.859375-16h47.027344c-2.019531 5.203126-3.644531 10.550782-4.859375 16zm12.496094-32h-62.300781c-3.265626-5.648437-7.011719-11.003906-11.203126-16h84.691407c-4.1875 5-7.929688 10.351563-11.1875 16zm-122.511719-184h51.363281v16h-36.160156c-2.859375 0-5.5 1.523438-6.929687 4l-63.3125 109.648438c-7.742188 1.273438-15.332032 3.367188-22.632813 6.246094zm-36.636719 336c-53.019531 0-96-42.980468-96-96 0-53.019531 42.980469-96 96-96 53.015625 0 96 42.980469 96 96-.058593 52.996094-43.007812 95.941407-96 96zm111.589844-88c.191406-2.65625.410156-5.296874.410156-8 0-2.707031-.21875-5.34375-.410156-8h32.800781c-.191406 2.65625-.410156 5.292969-.410156 8 0 2.703126.21875 5.34375.410156 8zm144.410156 88c-53.019531 0-96-42.980468-96-96 0-53.019531 42.980469-96 96-96 53.015625 0 96 42.980469 96 96-.058593 52.996094-43.007812 95.941407-96 96zm0 0" fill="url(#e)"/><path d="m367.894531 176.445312c-44.183593 0-80 35.816407-80 80 0 44.179688 35.816407 80 80 80 44.179688 0 80-35.820312 80-80-.050781-44.164062-35.839843-79.953124-80-80zm0 144c-35.347656 0-64-28.65625-64-64 0-35.347656 28.652344-64 64-64 35.34375 0 64 28.652344 64 64-.042969 35.328126-28.671875 63.960938-64 64zm0 0" fill="url(#b)"/><path d="m381.101562 210.371094c-3.355468-2.875-8.40625-2.484375-11.28125.871094l-48 56c-1.988281 2.152343-2.640624 5.222656-1.699218 7.996093.9375 2.773438 3.320312 4.816407 6.207031 5.316407s5.816406-.613282 7.636719-2.910157l48-56c2.871094-3.351562 2.484375-8.398437-.863282-11.273437zm0 0" fill="url(#c)"/><path d="m393.75 243.316406-40 48c-2.832031 3.394532-2.378906 8.441406 1.015625 11.273438 3.390625 2.832031 8.4375 2.375 11.269531-1.019532l40-48c2.832032-3.390624 2.378906-8.4375-1.015625-11.269531-3.390625-2.832031-8.4375-2.378906-11.269531 1.015625zm0 0" fill="url(#d)"/></svg>