<svg height="478pt" viewBox="0 0 478.65742 478" width="478pt" xmlns="http://www.w3.org/2000/svg" xmlns:xlink="http://www.w3.org/1999/xlink"><linearGradient id="a"><stop offset="0" stop-color="#039bca"/><stop offset=".207" stop-color="#3a7ac4"/><stop offset=".598" stop-color="#9c3fb9"/><stop offset=".871" stop-color="#da1ab2"/><stop offset="1" stop-color="#f20baf"/></linearGradient><linearGradient id="b" gradientUnits="userSpaceOnUse" x1="-15.966582" x2="492.081418" xlink:href="#a" y1="239.60871" y2="239.60871"/><linearGradient id="c" gradientUnits="userSpaceOnUse" x1="-15.966582" x2="492.081418" xlink:href="#a" y1="306.48071" y2="306.48071"/><linearGradient id="d" gradientUnits="userSpaceOnUse" x1="-15.966582" x2="492.081418" xlink:href="#a" y1="410.16871" y2="410.16871"/><linearGradient id="e" gradientUnits="userSpaceOnUse" x1="-15.966582" x2="492.081418" xlink:href="#a" y1="327.28071" y2="327.28071"/><linearGradient id="f" gradientUnits="userSpaceOnUse" x1="-15.966582" x2="492.081418" xlink:href="#a" y1="408.91271" y2="408.91271"/><linearGradient id="g" gradientUnits="userSpaceOnUse" x1="-15.966582" x2="492.081418" xlink:href="#a" y1="350.94471" y2="350.94471"/><linearGradient id="h" gradientUnits="userSpaceOnUse" x1="-15.966582" x2="492.081418" xlink:href="#a" y1="394.26471" y2="394.26471"/><linearGradient id="i" gradientUnits="userSpaceOnUse" x1="-15.966582" x2="492.081418" xlink:href="#a" y1="154.26471" y2="154.26471"/><linearGradient id="j" gradientUnits="userSpaceOnUse" x1="-15.966582" x2="492.081418" xlink:href="#a" y1="200.39271" y2="200.39271"/><linearGradient id="k" gradientUnits="userSpaceOnUse" x1="-15.966582" x2="492.081418" xlink:href="#a" y1="312.39271" y2="312.39271"/><path d="m37.113281 441.878906c23.480469 23.628906 55.394531 36.949219 88.703125 37.019532 62.769532.5 114.78125-48.558594 117.945313-111.25 4.089843-2.902344 7.929687-6.144532 11.472656-9.695313 17.433594-17.414063 26.972656-41.207031 26.398437-65.839844-.246093-13.847656-3.523437-27.46875-9.597656-39.914062l121.773438-121.765625 5.65625 5.65625 11.3125-11.3125 11.320312 11.3125 11.3125-11.3125-11.320312-11.3125 11.320312-11.3125 11.3125 11.3125 11.3125-11.3125-11.3125-11.3125 11.3125-11.320313 11.308594 11.3125 11.3125-11.3125-11.3125-11.3125 11.3125-11.308593-56.558594-56.570313-11.320312 11.3125-11.3125-11.3125-11.3125 11.3125 11.3125 11.3125-11.3125 11.320313-11.320313-11.320313-11.300781 11.3125 11.300781 11.320313-11.300781 11.3125-11.320312-11.3125-11.3125 11.3125 11.320312 11.308593-11.320312 11.3125 5.65625 5.65625-121.769532 121.777344c-12.445312-6.078125-26.070312-9.355469-39.917968-9.601563-29.90625-.691406-58.203126 13.5-75.53125 37.882813-63.46875 3.230469-112.820313 56.417969-111.3007818 119.949219.5703128 32.632812 13.8789058 63.746094 37.0781248 86.695312zm384.984375-418.925781 33.9375 33.945313-56.570312 56.566406-33.933594-33.945313zm-175.367187 186.679687 11.3125 11.3125 11.308593-11.320312-11.308593-11.304688 33.941406-33.945312 11.3125 11.3125 11.3125-11.3125-11.3125-11.308594 33.945313-33.945312 11.3125 11.3125 11.3125-11.3125-11.3125-11.3125 11.3125-11.320313 22.628906 22.632813-33.941406 33.9375-11.320313-11.3125-11.3125 11.3125 11.320313 11.316406-33.945313 33.9375-11.3125-11.3125-11.3125 11.3125 11.3125 11.3125-28.375 28.382812c-6.179687-8.792968-13.835937-16.449218-22.632813-22.625zm-200.953125 71.007813c18.660156-18.558594 43.78125-29.167969 70.097656-29.601563l4.253906-.09375 2.296875-3.578124c2.863281-4.449219 6.1875-8.582032 9.917969-12.335938 14.039062-14.03125 33.113281-21.851562 52.960938-21.71875h1.304687c43.222656 1.035156 78.011719 35.839844 79.023437 79.0625.65625 25.871094-12.246093 50.203125-34.023437 64.175781l-3.574219 2.296875-.105468 4.257813c-.429688 26.316406-11.039063 51.441406-29.601563 70.101562-42.160156 40.585938-109.210937 39.402344-149.917969-2.636719-20.242187-20.019531-31.859375-47.15625-32.375-75.617187-.664062-27.796875 10.082032-54.652344 29.742188-74.3125zm0 0" fill="url(#b)"/><path d="m172.503906 362.769531c26.859375.003907 49.980469-18.96875 55.222656-45.308593 5.242188-26.34375-8.855468-52.71875-33.667968-62.996094-24.8125-10.28125-53.433594-1.601563-68.355469 20.730468-14.921875 22.332032-11.988281 52.09375 7.003906 71.085938 10.527344 10.59375 24.863281 16.53125 39.796875 16.488281zm-28.46875-84.777343c13.589844-13.589844 34.886719-15.6875 50.867188-5.011719 15.984375 10.679687 22.195312 31.160156 14.839844 48.917969-7.355469 17.757812-26.230469 27.84375-45.082032 24.097656-18.847656-3.75-32.425781-20.296875-32.425781-39.515625-.03125-10.691407 4.214844-20.949219 11.800781-28.488281zm0 0" fill="url(#c)"/><path d="m192.960938 383.671875c-.359376.519531-36.105469 51.929687-86.617188 38.007813-4.230469-1.097657-8.5625 1.402343-9.722656 5.621093-1.160156 4.214844 1.277344 8.582031 5.476562 9.804688 7.195313 2.011719 14.632813 3.039062 22.105469 3.054687 48.941406 0 80.476563-45.269531 81.980469-47.472656 2.492187-3.652344 1.550781-8.628906-2.101563-11.117188-3.652343-2.492187-8.632812-1.550781-11.121093 2.101563zm0 0" fill="url(#d)"/><path d="m39.113281 377.082031c.957031 3.464844 4.109375 5.867188 7.703125 5.871094.71875.003906 1.4375-.09375 2.128906-.289063 2.046876-.558593 3.789063-1.914062 4.839844-3.757812 1.050782-1.847656 1.324219-4.035156.761719-6.082031-13.882813-50.28125 35.886719-85.167969 38.007813-86.625 3.648437-2.492188 4.585937-7.46875 2.09375-11.117188-2.492188-3.652343-7.46875-4.589843-11.117188-2.097656-2.523438 1.71875-61.355469 42.710937-44.417969 104.097656zm0 0" fill="url(#e)"/><path d="m68.90625 396.425781c-3.167969-2.859375-8.019531-2.726562-11.027344.296875-3.011718 3.023438-3.117187 7.875-.246094 11.03125l13.601563 13.640625c3.136719 3.03125 8.128906 2.988281 11.214844-.097656 3.085937-3.085937 3.128906-8.078125.097656-11.214844zm0 0" fill="url(#f)"/><path d="m88.082031 317.832031c-.082031.578125-7.199219 57.265625 62.191407 72.929688.578124.125 1.167968.1875 1.761718.191406 4.078125.003906 7.511719-3.0625 7.960938-7.121094.449218-4.054687-2.226563-7.796875-6.210938-8.6875-54.640625-12.328125-50.105468-53.246093-49.863281-55.113281.59375-4.359375-2.449219-8.382812-6.808594-9-2.101562-.316406-4.246093.222656-5.945312 1.503906-1.699219 1.277344-2.8125 3.1875-3.085938 5.296875zm0 0" fill="url(#g)"/><path d="m278.847656 396.433594-12.285156-4.105469-5.058594 15.183594 21.65625 7.226562 22.640625-22.632812 12.273438 4.09375 5.0625-15.183594-21.664063-7.214844zm0 0" fill="url(#h)"/><path d="m181.503906 156.199219 5.058594-15.183594-21.664062-7.214844-22.625 22.632813-12.28125-4.105469-5.0625 15.183594 21.65625 7.226562 22.640624-22.632812zm0 0" fill="url(#i)"/><path d="m55.042969 215.144531 3.46875 15.617188 22.296875-4.953125 13.257812-53.070313-57.039062-2.714843-10.097656 40.371093-12.632813 2.804688 3.472656 15.617187 22.289063-4.945312 9.3125-37.246094 24.445312 1.167969-6.136718 24.542969zm0 0" fill="url(#j)"/><path d="m335.042969 327.144531 3.46875 15.617188 22.296875-4.953125 13.257812-53.070313-57.039062-2.714843-10.097656 40.371093-12.632813 2.804688 3.472656 15.617187 22.289063-4.945312 9.3125-37.246094 24.445312 1.167969-6.136718 24.542969zm0 0" fill="url(#k)"/></svg>