<svg height="480pt" viewBox="0 0 480 480" width="480pt" xmlns="http://www.w3.org/2000/svg" xmlns:xlink="http://www.w3.org/1999/xlink"><linearGradient id="a"><stop offset="0" stop-color="#039bca"/><stop offset=".207" stop-color="#3a7ac4"/><stop offset=".598" stop-color="#9c3fb9"/><stop offset=".871" stop-color="#da1ab2"/><stop offset="1" stop-color="#f20baf"/></linearGradient><linearGradient id="b" gradientUnits="userSpaceOnUse" x1="-8" x2="473.664" xlink:href="#a" y1="240" y2="240"/><linearGradient id="c" gradientUnits="userSpaceOnUse" x1="-8" x2="473.664" xlink:href="#a" y1="192" y2="192"/><linearGradient id="d" gradientUnits="userSpaceOnUse" x1="-8" x2="473.664" xlink:href="#a" y1="376" y2="376"/><linearGradient id="e" gradientUnits="userSpaceOnUse" x1="-8" x2="473.664" xlink:href="#a" y1="136" y2="136"/><linearGradient id="f" gradientUnits="userSpaceOnUse" x1="-8" x2="473.664" xlink:href="#a" y1="248" y2="248"/><linearGradient id="g" gradientUnits="userSpaceOnUse" x1="-8" x2="473.664" xlink:href="#a" y1="56" y2="56"/><linearGradient id="h" gradientUnits="userSpaceOnUse" x1="-8" x2="473.664" xlink:href="#a" y1="176" y2="176"/><path d="m472 224h-32c-4.417969 0-8 3.582031-8 8v8h-16c-16.09375-.019531-29.6875 11.9375-31.71875 27.90625-2.035156 15.964844 8.132812 30.945312 23.71875 34.957031v137.136719h-40v-248h8v8c0 4.417969 3.582031 8 8 8h32c4.417969 0 8-3.582031 8-8v-80c0-4.417969-3.582031-8-8-8h-32c-4.417969 0-8 3.582031-8 8v8h-16c-16.09375-.019531-29.6875 11.9375-31.71875 27.90625-2.035156 15.964844 8.132812 30.945312 23.71875 34.957031v249.136719h-40v-432c0-4.417969-3.582031-8-8-8h-240c-4.417969 0-8 3.582031-8 8v24h-8c-4.417969 0-8 3.582031-8 8v24h-32c-4.417969 0-8 3.582031-8 8v400c0 4.417969 3.582031 8 8 8h256c4.417969 0 8-3.582031 8-8v-400c0-4.417969-3.582031-8-8-8h-176v-24c0-4.417969-3.582031-8-8-8h-8v-16h224v432c0 4.417969 3.582031 8 8 8h112c4.417969 0 8-3.582031 8-8v-144h8v8c0 4.417969 3.582031 8 8 8h32c4.417969 0 8-3.582031 8-8v-80c0-4.417969-3.582031-8-8-8zm-80-96h16v64h-16zm-336-80h16v16h-16zm200 32v384h-240v-384zm88 80c0-8.835938 7.164062-16 16-16h16v32h-16c-8.835938 0-16-7.164062-16-16zm88 128h-16c-8.835938 0-16-7.164062-16-16s7.164062-16 16-16h16zm32 16h-16v-64h16zm0 0" fill="url(#b)"/><path d="m32 104v176c0 4.417969 3.582031 8 8 8h192c4.417969 0 8-3.582031 8-8v-176c0-4.417969-3.582031-8-8-8h-192c-4.417969 0-8 3.582031-8 8zm16 8h176v160h-176zm0 0" fill="url(#c)"/><path d="m136 304c-39.765625 0-72 32.234375-72 72s32.234375 72 72 72 72-32.234375 72-72c-.046875-39.746094-32.253906-71.953125-72-72zm0 128c-30.929688 0-56-25.070312-56-56s25.070312-56 56-56 56 25.070312 56 56c-.035156 30.914062-25.085938 55.964844-56 56zm0 0" fill="url(#d)"/><path d="m136 344c-17.671875 0-32 14.328125-32 32s14.328125 32 32 32 32-14.328125 32-32-14.328125-32-32-32zm0 48c-8.835938 0-16-7.164062-16-16s7.164062-16 16-16 16 7.164062 16 16-7.164062 16-16 16zm0 0" fill="url(#d)"/><path d="m64 128h24v16h-24zm0 0" fill="url(#e)"/><path d="m64 240h144v16h-144zm0 0" fill="url(#f)"/><path d="m115.792969 222.808594c2.355469 1.457031 5.300781 1.589844 7.78125.351562l48-24c2.71875-1.351562 4.433593-4.125 4.433593-7.160156s-1.714843-5.808594-4.433593-7.160156l-48-24c-2.480469-1.238282-5.425781-1.105469-7.78125.351562-2.359375 1.460938-3.792969 4.035156-3.792969 6.808594v48c0 2.773438 1.433594 5.347656 3.792969 6.808594zm12.207031-41.863282 22.113281 11.054688-22.113281 11.054688zm0 0" fill="url(#c)"/><path d="m392 44.945312 11.574219-5.785156-7.148438-14.320312-20.425781 10.214844v32l-11.574219 5.785156 7.148438 14.320312 20.425781-10.214844zm0 0" fill="url(#g)"/><path d="m464 196.945312v-32l11.574219-5.785156-7.148438-14.320312-20.425781 10.214844v32l-11.574219 5.785156 7.148438 14.320312zm0 0" fill="url(#h)"/></svg>