<svg height="480pt" viewBox="0 0 480 480" width="480pt" xmlns="http://www.w3.org/2000/svg" xmlns:xlink="http://www.w3.org/1999/xlink"><linearGradient id="a"><stop offset="0" stop-color="#039bca"/><stop offset=".207" stop-color="#3a7ac4"/><stop offset=".598" stop-color="#9c3fb9"/><stop offset=".871" stop-color="#da1ab2"/><stop offset="1" stop-color="#f20baf"/></linearGradient><linearGradient id="b" gradientUnits="userSpaceOnUse" x1="-24" x2="494.216" xlink:href="#a" y1="192" y2="192"/><linearGradient id="c" gradientUnits="userSpaceOnUse" x1="-24" x2="494.216" xlink:href="#a" y1="184" y2="184"/><linearGradient id="d" gradientUnits="userSpaceOnUse" x1="-24" x2="494.216" xlink:href="#a" y1="440" y2="440"/><linearGradient id="e" gradientUnits="userSpaceOnUse" x1="-24" x2="494.216" xlink:href="#a" y1="112" y2="112"/><linearGradient id="f" gradientUnits="userSpaceOnUse" x1="-24" x2="494.216" xlink:href="#a" y1="40" y2="40"/><linearGradient id="g" gradientUnits="userSpaceOnUse" x1="-24" x2="494.216" xlink:href="#a" y1="344" y2="344"/><linearGradient id="h" gradientUnits="userSpaceOnUse" x1="-24" x2="494.216" xlink:href="#a" y1="376" y2="376"/><linearGradient id="i" gradientUnits="userSpaceOnUse" x1="-24" x2="494.216" xlink:href="#a" y1="360" y2="360"/><linearGradient id="j" gradientUnits="userSpaceOnUse" x1="-24" x2="494.216" xlink:href="#a" y1="124" y2="124"/><linearGradient id="k" gradientUnits="userSpaceOnUse" x1="-24" x2="494.216" xlink:href="#a" y1="284" y2="284"/><linearGradient id="l" gradientUnits="userSpaceOnUse" x1="-24" x2="494.216" xlink:href="#a" y1="264" y2="264"/><path d="m240 384c106.039062 0 192-85.960938 192-192s-85.960938-192-192-192-192 85.960938-192 192c.125 105.988281 86.011719 191.875 192 192zm0-368c97.203125 0 176 78.796875 176 176s-78.796875 176-176 176-176-78.796875-176-176c.109375-97.15625 78.84375-175.890625 176-176zm0 0" fill="url(#b)"/><path d="m240 224c22.089844 0 40-17.910156 40-40s-17.910156-40-40-40-40 17.910156-40 40c.027344 22.082031 17.917969 39.972656 40 40zm0-64c13.253906 0 24 10.746094 24 24s-10.746094 24-24 24-24-10.746094-24-24 10.746094-24 24-24zm0 0" fill="url(#c)"/><path d="m472 400h-464c-4.417969 0-8 3.582031-8 8v64c0 4.417969 3.582031 8 8 8h464c4.417969 0 8-3.582031 8-8v-64c0-4.417969-3.582031-8-8-8zm-8 64h-448v-16h448zm0-32h-448v-16h448zm0 0" fill="url(#d)"/><path d="m168 184c0 39.765625 32.234375 72 72 72s72-32.234375 72-72-32.234375-72-72-72c-39.746094.046875-71.953125 32.253906-72 72zm72-56c30.929688 0 56 25.070312 56 56s-25.070312 56-56 56-56-25.070312-56-56c.035156-30.914062 25.085938-55.964844 56-56zm0 0" fill="url(#c)"/><path d="m210.6875 47.535156c4.164062-1.484375 6.332031-6.0625 4.847656-10.222656-1.484375-4.164062-6.0625-6.332031-10.222656-4.847656-66.988281 22.503906-115.507812 80.933594-125.3125 150.917968-.167969 2.125.515625 4.226563 1.898438 5.84375 1.386718 1.617188 3.363281 2.617188 5.484374 2.773438h.625c4.1875.011719 7.675782-3.207031 8-7.382812 9.117188-63.753907 53.539063-116.851563 114.679688-137.082032zm0 0" fill="url(#e)"/><path d="m392 48c13.253906 0 24 10.746094 24 24 0 4.417969 3.582031 8 8 8s8-3.582031 8-8c0-13.253906 10.746094-24 24-24 4.417969 0 8-3.582031 8-8s-3.582031-8-8-8c-13.253906 0-24-10.746094-24-24 0-4.417969-3.582031-8-8-8s-8 3.582031-8 8c0 13.253906-10.746094 24-24 24-4.417969 0-8 3.582031-8 8s3.582031 8 8 8zm32-16.246094c2.332031 3.136719 5.109375 5.914063 8.246094 8.246094-3.136719 2.332031-5.914063 5.109375-8.246094 8.246094-2.332031-3.136719-5.109375-5.914063-8.246094-8.246094 3.136719-2.332031 5.914063-5.109375 8.246094-8.246094zm0 0" fill="url(#f)"/><path d="m64 336h16v16h-16zm0 0" fill="url(#g)"/><path d="m64 368h16v16h-16zm0 0" fill="url(#h)"/><path d="m48 352h16v16h-16zm0 0" fill="url(#i)"/><path d="m80 352h16v16h-16zm0 0" fill="url(#i)"/><path d="m205.023438 64.566406c-32.785157 12.015625-59.492188 36.503906-74.304688 68.121094-6.382812 13.59375-10.023438 28.3125-10.71875 43.3125 0 4.417969 3.582031 8 8 8s8-3.582031 8-8c0-.664062.855469-66.929688 74.976562-96.566406 4.105469-1.644532 6.097657-6.304688 4.457032-10.410156-1.644532-4.105469-6.304688-6.097657-10.410156-4.457032zm0 0" fill="url(#j)"/><path d="m247.367188 336c-4.417969.175781-7.859376 3.898438-7.683594 8.316406.175781 4.417969 3.898437 7.859375 8.316406 7.683594h.625c69.980469-9.808594 128.40625-58.324219 150.910156-125.3125 1.484375-4.160156-.683594-8.738281-4.847656-10.222656-4.160156-1.484375-8.738281.683594-10.222656 4.847656-37.6875 105.535156-133.050782 114.382812-137.097656 114.6875zm0 0" fill="url(#k)"/><path d="m248 304c0 4.417969 3.582031 8 8 8 15-.695312 29.71875-4.335938 43.3125-10.71875 31.617188-14.8125 56.105469-41.519531 68.121094-74.304688 1.640625-4.105468-.351563-8.765624-4.457032-10.410156-4.105468-1.640625-8.765624.351563-10.410156 4.457032-29.445312 73.640624-93.695312 74.976562-96.566406 74.976562-4.417969 0-8 3.582031-8 8zm0 0" fill="url(#l)"/></svg>