<svg id="_x33_0" enable-background="new 0 0 64 64" height="512" viewBox="0 0 64 64" width="512" xmlns="http://www.w3.org/2000/svg"><g><g><g><path d="m12.09 42h6.93c2.48 6.99 9.14 12 16.98 12 9.94 0 18-8.06 18-18s-8.06-18-18-18c-1.99 0-3.91.32-5.7.92l-.3-.17v-8.75h12v2.09c0 1.57.95 2.98 2.39 3.57.02.01.04.02.05.02 1.45.61 3.12.28 4.22-.83l1.48-1.48 8.49 8.49-1.48 1.47c-1.11 1.11-1.44 2.78-.83 4.23 0 .01.01.03.02.05.59 1.44 2 2.39 3.57 2.39h2.09v12h-2.09c-1.57 0-2.98.95-3.57 2.39-.01.02-.02.04-.02.05-.61 1.45-.28 3.12.83 4.22l1.48 1.48-8.49 8.49-1.47-1.48c-1.11-1.11-2.78-1.44-4.23-.83-.01 0-.03.01-.05.02-1.44.59-2.39 2-2.39 3.57v2.09h-12v-2.09c0-1.57-.95-2.98-2.39-3.57-.02-.01-.04-.02-.05-.02-1.45-.61-3.12-.28-4.23.83l-1.47 1.48-8.49-8.49.14-.14 1.34-1.34c.73-.72 1.11-1.68 1.13-2.66.01-.53-.09-1.06-.3-1.56 0-.01-.01-.03-.02-.05-.59-1.44-2-2.39-3.57-2.39z" fill="#ffc729"/></g><g><path d="m36 18c9.94 0 18 8.06 18 18s-8.06 18-18 18c-7.84 0-14.5-5.01-16.98-12h4.33c2.24 4.73 7.07 8 12.65 8 7.73 0 14-6.27 14-14s-6.27-14-14-14c-.68 0-1.35.05-2 .14v-.56c0-.18-.05-.35-.14-.5-.08-.15-.21-.28-.37-.37l-3.19-1.79c1.79-.6 3.71-.92 5.7-.92z" fill="#fcd770"/></g><g><path d="m6 18.75v4.5l-3.86-2.17c.08-.15.21-.28.37-.37z" fill="#cf9e76"/></g><g><path d="m30.3 18.92 3.19 1.79c.16.09.29.22.37.37l-3.86 2.17v-4.5z" fill="#cf9e76"/></g><g><path d="m16.04 28.9-13.74 12.82c-.18-.19-.3-.44-.3-.72v-19.42c0-.18.05-.35.14-.5l3.86 2.17z" fill="#dfb28b"/></g><g><path d="m34 22.14v18.86c0 .28-.12.53-.3.72l-13.74-12.82 10.04-5.65 3.86-2.17c.09.15.14.32.14.5z" fill="#dfb28b"/></g><g><path d="m19.96 28.9 13.74 12.82c-.18.17-.43.28-.7.28h-9.65-4.33-6.93-9.09c-.27 0-.52-.11-.7-.28l13.74-12.82.23-.22c.47-.44 1.09-.68 1.73-.68s1.26.24 1.73.68z" fill="#d3a06c"/></g><g><path d="m30 18.75v4.5l-10.04 5.65-.23-.22c-.47-.44-1.09-.68-1.73-.68s-1.26.24-1.73.68l-.23.22-10.04-5.65v-4.5-15.75c0-.55.45-1 1-1h22c.55 0 1 .45 1 1v7z" fill="#e6e9ed"/></g></g><g><path d="m17 36h2v2h-2z"/><path d="m21 36h2v2h-2z"/><path d="m13 36h2v2h-2z"/><path d="m11 5h14v2h-14z"/><path d="m11 9h14v2h-14z"/><path d="m11 13h14v2h-14z"/><path d="m11 17h4v2h-4z"/><path d="m17 17h8v2h-8z"/><path d="m11 21h14v2h-14z"/><path d="m3 53h2v2h-2z"/><path d="m7 53h2v2h-2z"/><path d="m11 53h2v2h-2z"/><circle cx="36" cy="14" r="1"/><path d="m20.444 50.556c-.256 0-.512.098-.707.293-.391.391-.391 1.024 0 1.414.195.195.451.293.707.293s.512-.098.707-.293c.391-.391.391-1.024 0-1.414-.195-.195-.451-.293-.707-.293z"/><circle cx="36" cy="58" r="1"/><path d="m51.556 50.556c-.256 0-.512.098-.707.293-.391.391-.391 1.024 0 1.414.195.195.451.293.707.293s.512-.098.707-.293c.391-.391.391-1.024 0-1.414-.195-.195-.451-.293-.707-.293z"/><circle cx="58" cy="36" r="1"/><path d="m51.556 19.444c-.256 0-.512.098-.707.293-.391.391-.391 1.024 0 1.414.195.195.451.293.707.293s.512-.098.707-.293c.391-.391.391-1.024 0-1.414-.195-.196-.451-.293-.707-.293z"/><path d="m59.911 43h3.089v-14h-3.089c-1.166 0-2.207-.697-2.672-1.825-.448-1.08-.206-2.31.618-3.133l2.184-2.184-9.899-9.899-2.184 2.184c-.824.824-2.052 1.067-3.182.598-1.079-.446-1.776-1.487-1.776-2.652v-3.089h-12v-6c0-1.103-.897-2-2-2h-22c-1.103 0-2 .897-2 2v15.165l-2.98 1.677c-.629.354-1.02 1.022-1.02 1.743v19.415c0 1.103.897 2 2 2h9.089c1.166 0 2.207.697 2.672 1.825.024.058.038.117.058.175h-11.819v2h11.77c-.141.351-.348.679-.627.958l-1.042 1.042h-10.101v2h9.816l9.042 9.042 2.184-2.184c.824-.823 2.054-1.066 3.182-.598 1.079.445 1.776 1.486 1.776 2.651v3.089h14v-3.089c0-1.166.697-2.207 1.826-2.672 1.078-.449 2.308-.206 3.132.618l2.184 2.184 9.899-9.899-2.184-2.184c-.824-.824-1.066-2.054-.598-3.182.446-1.079 1.487-1.776 2.652-1.776zm-26.911-20.29v16.989l-11.358-10.6zm-2-1.17v-1.08l.96.54zm4 19.46v-17.96c.333-.025.667-.04 1-.04 7.168 0 13 5.832 13 13s-5.832 13-13 13c-4.443 0-8.579-2.312-10.948-6h7.948c1.103 0 2-.897 2-2zm-12.259 2c2.583 4.877 7.713 8 13.259 8 8.271 0 15-6.729 15-15s-6.729-15-15-15c-.359 0-.72.013-1.079.039-.143-.5-.475-.935-.94-1.197l-1.003-.564c.992-.179 2.001-.278 3.022-.278 9.374 0 17 7.626 17 17s-7.626 17-17 17c-6.711 0-12.765-3.965-15.493-10zm6.259-40v19.665l-8.932 5.024c-1.211-.86-2.925-.86-4.136 0l-8.932-5.024v-19.665zm-14.642 26.099-11.358 10.6v-16.989zm-9.358-7.559-.96-.54.96-.54zm-.463 19.46 12.415-11.587c.57-.533 1.526-.533 2.097 0l12.415 11.587zm51.906 8.372.77.77-7.071 7.071-.77-.77c-1.398-1.398-3.482-1.811-5.359-1.032-1.83.755-3.013 2.521-3.013 4.5v1.089h-10v-1.089c0-1.979-1.183-3.745-3.058-4.519-1.829-.76-3.915-.348-5.314 1.051l-.77.77-7.071-7.071.77-.77c1.398-1.398 1.811-3.484 1.032-5.359-.152-.368-.354-.702-.581-1.013h2.34c2.857 7.203 9.853 12 17.652 12 10.477 0 19-8.523 19-19s-8.523-19-19-19c-1.702 0-3.376.237-5 .679v-6.679h10v1.089c0 1.979 1.183 3.745 3.058 4.519 1.829.76 3.916.346 5.314-1.051l.77-.77 7.071 7.071-.77.77c-1.398 1.398-1.811 3.484-1.032 5.359.755 1.831 2.521 3.013 4.5 3.013h1.089v10h-1.089c-1.979 0-3.745 1.183-4.519 3.058-.76 1.83-.347 3.916 1.051 5.314z"/></g></g></svg>
