<svg id="Layer_5" enable-background="new 0 0 64 64" height="512" viewBox="0 0 64 64" width="512" xmlns="http://www.w3.org/2000/svg"><g><g><g><path d="m20 18h14c-2.21 0-4 1.79-4 4s1.79 4 4 4h-14c2.21 0 4-1.79 4-4s-1.79-4-4-4z" fill="#ccd1d9"/></g><g><path d="m48 14v16h-29-3-9c-.55 0-1-.45-1-1v-15zm-4 8c0-2.21-1.79-4-4-4h-6-14-6c-2.21 0-4 1.79-4 4s1.79 4 4 4h6 14 6c2.21 0 4-1.79 4-4z" fill="#ffeaa7"/></g><g><path d="m20 18c2.21 0 4 1.79 4 4s-1.79 4-4 4h-6c2.21 0 4-1.79 4-4s-1.79-4-4-4z" fill="#5cd6b3"/></g><g><path d="m34 18h6c-2.21 0-4 1.79-4 4s1.79 4 4 4h-6c-2.21 0-4-1.79-4-4s1.79-4 4-4z" fill="#5cd6b3"/></g><g><path d="m48 2h-42c-2.21 0-4 1.79-4 4v8 16c0 2.21 1.79 4 4 4h6c0-2.21 1.79-4 4-4h-9c-.55 0-1-.45-1-1v-15h42v16h4v-24c0-2.21-1.79-4-4-4z" fill="#fcd770"/></g><g><circle cx="8" cy="8" fill="#5cd6b3" r="2"/></g><g><path d="m48 7v2c0 .55-.45 1-1 1h-6c-.55 0-1-.45-1-1v-2c0-.55.45-1 1-1h6c.55 0 1 .45 1 1z" fill="#ff826e"/></g><g><path d="m62 34v24c0 2.21-1.79 4-4 4h-4v-4h3c.55 0 1-.45 1-1v-22c0-.55-.45-1-1-1h-40c-.55 0-1 .45-1 1v22c0 .55.45 1 1 1h3v4h-4c-2.21 0-4-1.79-4-4v-24c0-2.21 1.79-4 4-4h3 29 4 6c2.21 0 4 1.79 4 4z" fill="#aab2bd"/></g><g><path d="m16 57v-22c0-.55.45-1 1-1h40c.55 0 1 .45 1 1v22c0 .55-.45 1-1 1h-3c0-2.21-1.79-4-4-4h-26c-2.21 0-4 1.79-4 4h-3c-.55 0-1-.45-1-1zm36-11c0-2.21-1.79-4-4-4s-4 1.79-4 4 1.79 4 4 4 4-1.79 4-4zm-22 0c0-2.21-1.79-4-4-4s-4 1.79-4 4 1.79 4 4 4 4-1.79 4-4z" fill="#ccd1d9"/></g><g><path d="m34 44h6v4h-6z" fill="#ff826e"/></g><g><path d="m50 54c2.21 0 4 1.79 4 4v4h-34v-4c0-2.21 1.79-4 4-4z" fill="#5cd6b3"/></g></g><g><path d="m58 29h-5v-23c0-2.757-2.243-5-5-5h-42c-2.757 0-5 2.243-5 5v24c0 2.757 2.243 5 5 5h5v23c0 2.757 2.243 5 5 5h42c2.757 0 5-2.243 5-5v-24c0-2.757-2.243-5-5-5zm-9 0v-14h2v14zm-42 0v-14h40v14h-28-3zm-1-26h42c1.654 0 3 1.346 3 3v7h-48v-7c0-1.654 1.346-3 3-3zm-3 27v-15h2v14c0 1.103.897 2 2 2h5.026c-.442.584-.773 1.257-.924 2h-5.102c-1.654 0-3-1.346-3-3zm51.899 27c-.465-2.279-2.484-4-4.899-4h-26c-2.414 0-4.434 1.721-4.899 4h-2.101v-22h40v22zm-33.899 1c0-1.654 1.346-3 3-3h26c1.654 0 3 1.346 3 3v3h-32zm40 0c0 1.654-1.346 3-3 3h-3v-2h2c1.103 0 2-.897 2-2v-22c0-1.103-.897-2-2-2h-40c-1.103 0-2 .897-2 2v22c0 1.103.897 2 2 2h2v2h-3c-1.654 0-3-1.346-3-3v-24c0-1.654 1.346-3 3-3h3 39c1.654 0 3 1.346 3 3z"/><path d="m23 57h2v2h-2z"/><path d="m27 57h2v2h-2z"/><path d="m45 57h2v2h-2z"/><path d="m49 57h2v2h-2z"/><path d="m48 41c-2.757 0-5 2.243-5 5s2.243 5 5 5 5-2.243 5-5-2.243-5-5-5zm0 8c-1.654 0-3-1.346-3-3s1.346-3 3-3 3 1.346 3 3-1.346 3-3 3z"/><path d="m26 41c-2.757 0-5 2.243-5 5s2.243 5 5 5 5-2.243 5-5-2.243-5-5-5zm0 8c-1.654 0-3-1.346-3-3s1.346-3 3-3 3 1.346 3 3-1.346 3-3 3z"/><path d="m33 49h8v-6h-8zm2-4h4v2h-4z"/><path d="m19 37h2v2h-2z"/><path d="m23 37h2v2h-2z"/><path d="m27 37h2v2h-2z"/><path d="m8 11c1.654 0 3-1.346 3-3s-1.346-3-3-3-3 1.346-3 3 1.346 3 3 3zm0-4c.552 0 1 .449 1 1s-.448 1-1 1-1-.449-1-1 .448-1 1-1z"/><path d="m41 11h6c1.103 0 2-.897 2-2v-2c0-1.103-.897-2-2-2h-6c-1.103 0-2 .897-2 2v2c0 1.103.897 2 2 2zm0-4h6l.001 2h-6.001z"/><path d="m35 5h2v2h-2z"/><path d="m27 5h2v2h-2z"/><path d="m31 5h2v2h-2z"/><path d="m35 9h2v2h-2z"/><path d="m31 9h2v2h-2z"/><path d="m27 9h2v2h-2z"/><path d="m40 27c2.757 0 5-2.243 5-5s-2.243-5-5-5h-26c-2.757 0-5 2.243-5 5s2.243 5 5 5zm-16.026-2c.635-.838 1.026-1.87 1.026-3s-.391-2.162-1.026-3h6.051c-.634.838-1.025 1.87-1.025 3s.391 2.162 1.026 3zm19.026-3c0 1.654-1.346 3-3 3s-3-1.346-3-3 1.346-3 3-3 3 1.346 3 3zm-6.974-3c-.635.838-1.026 1.87-1.026 3s.391 2.162 1.026 3h-2.026c-1.654 0-3-1.346-3-3s1.346-3 3-3zm-25.026 3c0-1.654 1.346-3 3-3s3 1.346 3 3-1.346 3-3 3-3-1.346-3-3zm6.974 3c.635-.838 1.026-1.87 1.026-3s-.391-2.162-1.026-3h2.026c1.654 0 3 1.346 3 3s-1.346 3-3 3z"/></g></g></svg>
