<svg height="496pt" viewBox="0 0 496 496" width="496pt" xmlns="http://www.w3.org/2000/svg"><path d="m488 472.160156v15.839844h-160v-15.839844c0-14.320312 9.441406-26.878906 23.199219-30.800781l32.800781-9.359375c0 13.28125 10.71875 24 24 24s24-10.71875 24-24l32.800781 9.359375c13.757813 3.921875 23.199219 16.480469 23.199219 30.800781zm0 0" fill="#48cfad"/><path d="m168 472.160156v15.839844h-160v-15.839844c0-14.320312 9.441406-26.878906 23.199219-30.800781l32.800781-9.359375c0 13.28125 10.71875 24 24 24s24-10.71875 24-24l32.800781 9.359375c13.757813 3.921875 23.199219 16.480469 23.199219 30.800781zm0 0" fill="#48cfad"/><path d="m328 472.160156v15.839844h-160v-15.839844c0-14.320312 9.441406-26.878906 23.199219-30.800781l32.800781-9.359375c0 13.28125 10.71875 24 24 24s24-10.71875 24-24l32.800781 9.359375c13.757813 3.921875 23.199219 16.480469 23.199219 30.800781zm0 0" fill="#fcd770"/><g fill="#f0d0b4"><path d="m448 368v16c0 13.441406-6.640625 25.28125-16.71875 32.558594-6.5625 4.640625-14.640625 7.441406-23.28125 7.441406s-16.71875-2.800781-23.28125-7.441406c-10.078125-7.277344-16.71875-19.117188-16.71875-32.558594v-16c0-22.078125 17.921875-40 40-40 11.039062 0 21.039062 4.480469 28.320312 11.679688 7.199219 7.28125 11.679688 17.28125 11.679688 28.320312zm0 0"/><path d="m432 417.519531v14.480469c0 13.28125-10.71875 24-24 24s-24-10.71875-24-24v-14.480469l.71875-.960937c6.5625 4.640625 14.640625 7.441406 23.28125 7.441406s16.71875-2.800781 23.28125-7.441406zm0 0"/><path d="m288 368v16c0 13.441406-6.640625 25.28125-16.71875 32.558594-6.5625 4.640625-14.640625 7.441406-23.28125 7.441406s-16.71875-2.800781-23.28125-7.441406c-10.078125-7.277344-16.71875-19.117188-16.71875-32.558594v-16c0-22.078125 17.921875-40 40-40 11.039062 0 21.039062 4.480469 28.320312 11.679688 7.199219 7.28125 11.679688 17.28125 11.679688 28.320312zm0 0"/><path d="m272 417.519531v14.480469c0 13.28125-10.71875 24-24 24s-24-10.71875-24-24v-14.480469l.71875-.960937c6.5625 4.640625 14.640625 7.441406 23.28125 7.441406s16.71875-2.800781 23.28125-7.441406zm0 0"/><path d="m128 368v16c0 13.441406-6.640625 25.28125-16.71875 32.558594-6.5625 4.640625-14.640625 7.441406-23.28125 7.441406s-16.71875-2.800781-23.28125-7.441406c-10.078125-7.277344-16.71875-19.117188-16.71875-32.558594v-16c0-22.078125 17.921875-40 40-40 11.039062 0 21.039062 4.480469 28.320312 11.679688 7.199219 7.28125 11.679688 17.28125 11.679688 28.320312zm0 0"/><path d="m112 417.519531v14.480469c0 13.28125-10.71875 24-24 24s-24-10.71875-24-24v-14.480469l.71875-.960937c6.5625 4.640625 14.640625 7.441406 23.28125 7.441406s16.71875-2.800781 23.28125-7.441406zm0 0"/></g><path d="m352 215.839844v32.160156h-64l-8-32 24-8-8-32 .238281-.71875 32.960938 9.839844c13.519531 4.078125 22.800781 16.558594 22.800781 30.71875zm0 0" fill="#656d78"/><path d="m216 216-8 32h-64v-32.160156c0-14.160156 9.28125-26.640625 22.800781-30.71875l32.960938-9.839844.238281.71875-8 32zm0 0" fill="#656d78"/><path d="m280 216 8 32h-40l24-80 24.238281 7.28125-.238281.71875 8 32zm0 0" fill="#969faa"/><path d="m216 216-24-8 8-32-.238281-.71875 24.238281-7.28125 24 80h-40zm0 0" fill="#969faa"/><path d="m272 168-24 80-24-80 24 16zm0 0" fill="#fcd770"/><path d="m208 80c-13.28125 0-24 10.71875-24 24v-32c0-17.679688 7.199219-33.679688 18.71875-45.28125 11.601562-11.519531 27.601562-18.71875 45.28125-18.71875 35.359375 0 64 28.640625 64 64v32c0-6.640625-2.71875-12.640625-7.039062-16.960938-4.320313-4.320312-10.320313-7.039062-16.960938-7.039062h-1.359375c-14.480469 0-28.402344-5.761719-38.640625-16-10.238281 10.238281-24.160156 16-38.640625 16zm0 0" fill="#fcd770"/><path d="m272 168-24 16-24-16v-16c6.640625 5.039062 14.960938 8 24 8 4.960938 0 9.679688-.878906 24-8zm0 0" fill="#f0d0b4"/><path d="m312 104c0 13.28125-10.71875 24-24 24l-.800781-.078125c.5625-2.5625.800781-5.203125.800781-7.921875v-40c6.640625 0 12.640625 2.71875 16.960938 7.039062 4.320312 4.320313 7.039062 10.320313 7.039062 16.960938zm0 0" fill="#f0d0b4"/><path d="m288 80v40c0 2.71875-.238281 5.359375-.800781 7.921875-1.519531 7.839844-5.4375 14.878906-10.878907 20.398437-1.359374 1.359376-2.800781 2.558594-4.320312 3.679688-14.320312 7.121094-19.039062 8-24 8-9.039062 0-17.359375-2.960938-24-8-7.679688-5.839844-13.28125-14.320312-15.199219-24.078125-.5625-2.5625-.800781-5.203125-.800781-7.921875v-40h1.359375c14.480469 0 28.402344-5.761719 38.640625-16 10.238281 10.238281 24.160156 16 38.640625 16zm0 0" fill="#f0d0b4"/><path d="m208 120c0 2.71875.238281 5.359375.800781 7.921875l-.800781.078125c-6.640625 0-12.640625-2.71875-16.960938-7.039062-4.320312-4.320313-7.039062-10.320313-7.039062-16.960938 0-13.28125 10.71875-24 24-24zm0 0" fill="#f0d0b4"/><path d="m466.992188 433.671875-26.992188-7.710937v-6.28125c9.792969-8.792969 16-21.503907 16-35.679688v-16c0-23.734375-17.335938-43.449219-40-47.28125v-16.71875c0-13.230469-10.769531-24-24-24h-136v-24h104v-40.183594c0-17.808594-11.457031-33.199218-28.503906-38.320312l-51.496094-15.449219v-6.367187c6.054688-5.433594 10.71875-12.359376 13.398438-20.222657 15.074218-2.585937 26.601562-15.65625 26.601562-31.457031v-32c0-39.703125-32.304688-72-72-72s-72 32.296875-72 72v32c0 15.800781 11.527344 28.871094 26.601562 31.457031 2.679688 7.855469 7.34375 14.78125 13.398438 20.222657v6.367187l-51.496094 15.449219c-17.046875 5.113281-28.503906 20.511718-28.503906 38.320312v40.183594h104v24h-136c-13.230469 0-24 10.769531-24 24v16.71875c-22.664062 3.832031-40 23.546875-40 47.28125v16c0 14.167969 6.207031 26.878906 16 35.679688v6.289062l-26.992188 7.710938c-17.078124 4.878906-29.007812 20.703124-29.007812 38.464843v23.855469h496v-23.855469c0-17.761719-11.929688-33.585937-29.007812-38.472656zm-218.992188-240.054687 9.953125-6.632813-9.953125 33.175781-9.953125-33.175781zm-11.910156-27.175782c3.8125.984375 7.789062 1.558594 11.910156 1.558594s8.097656-.574219 11.910156-1.558594l-11.910156 7.941406zm107.910156 49.375v24.183594h-49.753906l-4.6875-18.753906 24-8-6.597656-26.40625 19.933593 5.984375c10.234375 3.0625 17.105469 12.3125 17.105469 22.992187zm-54.871094-34.328125 5.3125 21.253907-24 8 7.3125 29.257812h-19l18.605469-62.039062zm-41.128906-29.488281c-17.648438 0-32-14.351562-32-32v-32.550781c11.710938-1.234375 22.761719-5.503907 32-12.769531 9.238281 7.265624 20.289062 11.535156 32 12.769531v32.550781c0 17.648438-14.351562 32-32 32zm48-34.222656v-27.554688c4.761719 2.777344 8 7.882813 8 13.777344s-3.238281 11-8 13.777344zm-48-101.777344c30.878906 0 56 25.128906 56 56v4.449219c-4.726562-2.753907-10.144531-4.449219-16-4.449219h-1.367188c-12.457031 0-24.167968-4.847656-32.976562-13.65625l-5.65625-5.65625-5.65625 5.65625c-8.808594 8.808594-20.519531 13.65625-32.976562 13.65625h-1.367188c-5.855469 0-11.273438 1.695312-16 4.449219v-4.449219c0-30.871094 25.121094-56 56-56zm-56 88c0-5.894531 3.238281-11 8-13.777344v27.554688c-4.761719-2.777344-8-7.882813-8-13.777344zm26.632812 73.960938 18.613282 62.039062h-19l7.3125-29.246094-24-8 5.3125-21.257812zm-66.632812 37.855468c0-10.679687 6.871094-19.921875 17.105469-22.992187l19.941406-5.984375-6.597656 26.40625 24 8-4.695313 18.753906h-49.753906zm240 213.382813c5.015625 1.785156 10.382812 2.800781 16 2.800781s10.984375-1.023438 16-2.800781v2.800781c0 8.824219-7.175781 16-16 16s-16-7.175781-16-16zm48-61.199219v16c0 17.648438-14.351562 32-32 32s-32-14.351562-32-32v-16c0-17.648438 14.351562-32 32-32s32 14.351562 32 32zm-48-72c4.40625 0 8 3.585938 8 8v16.71875c-22.664062 3.824219-40 23.539062-40 47.28125v16c0 14.167969 6.207031 26.878906 16 35.679688v6.289062l-26.992188 7.71875c-8.601562 2.457031-15.886718 7.703125-21.007812 14.558594-5.121094-6.855469-12.40625-12.101563-21.007812-14.566406l-26.992188-7.71875v-6.28125c9.792969-8.792969 16-21.503907 16-35.679688v-16c0-23.734375-17.335938-43.449219-40-47.28125v-24.71875zm-144 40c17.648438 0 32 14.351562 32 32v16c0 17.648438-14.351562 32-32 32s-32-14.351562-32-32v-16c0-17.648438 14.351562-32 32-32zm-16 93.199219c5.015625 1.785156 10.382812 2.800781 16 2.800781s10.984375-1.023438 16-2.800781v2.800781c0 8.824219-7.175781 16-16 16s-16-7.175781-16-16zm-128-133.199219h136v24.71875c-22.664062 3.824219-40 23.539062-40 47.28125v16c0 14.167969 6.207031 26.878906 16 35.679688v6.289062l-26.992188 7.71875c-8.601562 2.457031-15.886718 7.703125-21.007812 14.558594-5.121094-6.855469-12.40625-12.101563-21.007812-14.566406l-26.992188-7.71875v-6.28125c9.792969-8.792969 16-21.503907 16-35.679688v-16c0-23.734375-17.335938-43.449219-40-47.28125v-16.71875c0-4.414062 3.59375-8 8-8zm-48 72c0-17.648438 14.351562-32 32-32s32 14.351562 32 32v16c0 17.648438-14.351562 32-32 32s-32-14.351562-32-32zm32 64c5.617188 0 10.984375-1.023438 16-2.800781v2.800781c0 8.824219-7.175781 16-16 16s-16-7.175781-16-16v-2.800781c5.015625 1.777343 10.382812 2.800781 16 2.800781zm72 48h-144v-7.855469c0-10.65625 7.160156-20.152343 17.40625-23.082031l24.386719-6.964844c4.246093 12.6875 16.109375 21.902344 30.207031 21.902344s25.960938-9.222656 30.207031-21.902344l24.386719 6.957032c10.246094 2.9375 17.40625 12.433593 17.40625 23.089843zm160 0h-144v-7.855469c0-10.65625 7.160156-20.152343 17.40625-23.082031l24.386719-6.964844c4.246093 12.6875 16.109375 21.902344 30.207031 21.902344s25.960938-9.222656 30.207031-21.902344l24.386719 6.957032c10.246094 2.9375 17.40625 12.433593 17.40625 23.089843zm160 0h-144v-7.855469c0-10.65625 7.160156-20.152343 17.40625-23.082031l24.386719-6.964844c4.246093 12.6875 16.109375 21.902344 30.207031 21.902344s25.960938-9.222656 30.207031-21.902344l24.386719 6.957032c10.246094 2.9375 17.40625 12.433593 17.40625 23.089843zm0 0"/></svg>
