<svg height="496pt" viewBox="-40 0 496 496" width="496pt" xmlns="http://www.w3.org/2000/svg"><path d="m360 440h-352v-400h352zm0 0" fill="#ffeaa7"/><path d="m360 72h-320v368h320zm0 0" fill="#fcd770"/><path d="m248 88h96l64 64v336h-352v-400zm0 0" fill="#e6e9ed"/><path d="m408 152-64-64h-8v80h72zm0 0" fill="#ccd1d9"/><path d="m344 88v64h64zm0 0" fill="#a0d468"/><path d="m344 280c0 61.855469-50.144531 112-112 112s-112-50.144531-112-112 50.144531-112 112-112 112 50.144531 112 112zm0 0" fill="#b4dd7f"/><path d="m248 288v-12.441406c9.527344-5.542969 16-15.742188 16-27.558594v-14.335938c0-16.878906-12.320312-32.070312-29.136719-33.535156-18.960937-1.648437-34.863281 13.253906-34.863281 31.871094v16c0 11.816406 6.472656 22.015625 16 27.558594v12.441406l-32.792969 9.367188c-13.734375 3.929687-23.207031 16.480468-23.207031 30.769531v15.863281h144v-15.863281c0-14.289063-9.472656-26.839844-23.207031-30.769531zm0 0" fill="#ffeaa7"/><path d="m368 100.6875v-68.6875h-112.808594c-3.71875-18.230469-19.878906-32-39.191406-32s-35.472656 13.769531-39.191406 32h-176.808594v416h48v48h368v-347.3125zm-16 6.625 36.6875 36.6875h-36.6875zm0-22.625-4.6875-4.6875h-91.3125v-32h96zm-336 347.3125v-384h160v32h-128v352zm48 48v-384h112v24c0 13.230469 10.769531 24 24 24s24-10.769531 24-24v-72h-16v72c0 4.40625-3.59375 8-8 8s-8-3.59375-8-8v-80c0-13.230469 10.769531-24 24-24s24 10.769531 24 24v104h16v-48h80v64h64v320zm0 0"/><path d="m232 400c66.167969 0 120-53.832031 120-120s-53.832031-120-120-120-120 53.832031-120 120 53.832031 120 120 120zm0-16c-29.398438 0-55.9375-12.320312-74.871094-32h149.742188c-18.933594 19.679688-45.472656 32-74.871094 32zm-11.976562-115.351562c-7.527344-4.382813-12.023438-12.105469-12.023438-20.648438v-16c0-6.703125 2.839844-13.160156 7.792969-17.695312 5.007812-4.601563 11.503906-6.792969 18.382812-6.207032 12.230469 1.0625 21.824219 12.285156 21.824219 25.566406v14.335938c0 8.542969-4.496094 16.265625-12.023438 20.648438l-3.976562 2.3125v23.070312l38.59375 11.023438c10.246094 2.9375 17.40625 12.433593 17.40625 23.089843v7.855469h-128v-7.855469c0-10.65625 7.160156-20.152343 17.40625-23.082031l38.59375-11.03125v-23.070312zm11.976562-92.648438c57.34375 0 104 46.65625 104 104 0 25.207031-9.023438 48.335938-24 66.359375v-18.214844c0-17.761719-11.929688-33.578125-29.007812-38.472656l-26.992188-7.703125v-2.136719c9.96875-7.511719 16-19.328125 16-31.832031v-14.335938c0-21.503906-16.007812-39.726562-36.449219-41.503906-11.199219-.992187-22.34375 2.800782-30.574219 10.351563-8.25 7.558593-12.976562 18.3125-12.976562 29.488281v16c0 12.503906 6.03125 24.320312 16 31.832031v2.136719l-26.992188 7.710938c-17.078124 4.878906-29.007812 20.703124-29.007812 38.464843v18.214844c-14.976562-18.023437-24-41.152344-24-66.359375 0-57.34375 46.65625-104 104-104zm0 0"/><path d="m80 416h304v16h-304zm0 0"/><path d="m80 448h272v16h-272zm0 0"/><path d="m368 448h16v16h-16zm0 0"/></svg>
