<svg height="496pt" viewBox="0 0 496 496" width="496pt" xmlns="http://www.w3.org/2000/svg"><path d="m187.199219 432.238281-23.679688 14.160157-33.917969-33.917969 14.160157-23.679688c-14.402344-20.5625-24.480469-44.320312-29.042969-70.082031l-26.71875-6.71875v-53.601562l4.160156-2.476563c8.878906 5.117187 18.480469 9.117187 28.640625 11.839844l7.199219 28.238281h32.238281c4.160157 66.960938 59.761719 120 127.761719 120 70.71875 0 128-57.28125 128-128 0-68-53.039062-123.601562-120-127.761719v-32.238281l-28.238281-7.199219c-2.722657-10.160156-6.722657-19.761719-11.839844-28.640625l2.476563-4.160156h53.601562l6.71875 26.71875c25.761719 4.5625 49.519531 14.640625 70.082031 29.042969l23.679688-14.160157 33.917969 33.917969-14.160157 23.679688c14.402344 20.5625 24.480469 44.320312 29.042969 70.082031l26.71875 6.71875v48l-26.71875 6.71875c-4.5625 25.761719-14.640625 49.519531-29.042969 70.082031l14.160157 23.679688-33.917969 33.917969-23.679688-14.160157c-20.5625 14.402344-44.320312 24.480469-70.082031 29.042969l-6.71875 26.71875h-48l-6.71875-26.71875c-25.761719-4.5625-49.519531-14.640625-70.082031-29.042969zm0 0" fill="#b4dd7f"/><path d="m296 176v-15.761719c66.960938 4.160157 120 59.761719 120 127.761719 0 70.71875-57.28125 128-128 128-68 0-123.601562-53.039062-127.761719-120h15.761719l7.199219-28.238281c10.160156-2.722657 19.761719-6.722657 28.640625-11.839844l2.238281 1.359375c-3.917969 9.4375-6.078125 19.839844-6.078125 30.71875 0 44.160156 35.839844 80 80 80s80-35.839844 80-80-35.839844-80-80-80c-10.878906 0-21.28125 2.160156-30.71875 6.078125l-1.359375-2.238281c5.117187-8.878906 9.117187-18.480469 11.839844-28.640625zm0 0" fill="#8cc152"/><path d="m296 160.238281v15.761719l-28.238281 7.199219c-2.722657 10.160156-6.722657 19.761719-11.839844 28.640625l1.359375 2.238281 13.519531 22.800781-33.921875 33.921875-22.800781-13.519531-2.238281-1.359375c-8.878906 5.117187-18.480469 9.117187-28.640625 11.839844l-7.199219 28.238281h-48l-7.199219-28.238281c-10.160156-2.722657-19.761719-6.722657-28.640625-11.839844l-4.160156 2.476563-20.878906 12.402343-33.921875-33.921875 14.878906-25.039062c-5.117187-8.878906-9.117187-18.480469-11.839844-28.640625l-28.238281-7.199219v-48l28.238281-7.199219c2.722657-10.160156 6.722657-19.761719 11.839844-28.640625l-14.878906-25.039062 33.921875-33.921875 25.039062 14.878906c8.878906-5.117187 18.480469-9.117187 28.640625-11.839844l7.199219-28.238281h48l7.199219 28.238281c10.160156 2.722657 19.761719 6.722657 28.640625 11.839844l25.039062-14.878906 33.921875 33.921875-12.402343 20.878906-2.476563 4.160156c5.117187 8.878906 9.117187 18.480469 11.839844 28.640625l28.238281 7.199219zm-56-8.238281c0-48.640625-39.359375-88-88-88s-88 39.359375-88 88 39.359375 88 88 88 88-39.359375 88-88zm0 0" fill="#ffc729"/><path d="m152 64c48.640625 0 88 39.359375 88 88s-39.359375 88-88 88-88-39.359375-88-88 39.359375-88 88-88zm56 88c0-30.960938-25.039062-56-56-56s-56 25.039062-56 56 25.039062 56 56 56 56-25.039062 56-56zm0 0" fill="#fcd770"/><path d="m248 152c0-52.9375-43.0625-96-96-96s-96 43.0625-96 96 43.0625 96 96 96 96-43.0625 96-96zm-176 0c0-44.113281 35.886719-80 80-80s80 35.886719 80 80-35.886719 80-80 80-80-35.886719-80-80zm0 0"/><path d="m216 152c0-35.289062-28.710938-64-64-64s-64 28.710938-64 64 28.710938 64 64 64 64-28.710938 64-64zm-112 0c0-26.472656 21.527344-48 48-48s48 21.527344 48 48-21.527344 48-48 48-48-21.527344-48-48zm0 0"/><path d="m468.167969 250.734375c-4.6875-22.863281-13.558594-44.269531-26.425781-63.773437l14.707031-24.664063-42.753907-42.753906-24.664062 14.703125c-19.503906-12.855469-40.910156-21.726563-63.773438-26.421875l-7.027343-27.824219h-45.757813l8.382813-14.113281-42.734375-42.734375-26.449219 15.703125c-6.945313-3.664063-14.265625-6.6875-21.847656-9.023438l-7.609375-29.832031h-60.429688l-7.609375 29.832031c-7.582031 2.335938-14.902343 5.367188-21.847656 9.023438l-26.441406-15.703125-42.734375 42.734375 15.703125 26.449219c-3.664063 6.945312-6.6875 14.265624-9.023438 21.847656l-29.832031 7.601562v60.429688l29.832031 7.609375c2.335938 7.582031 5.367188 14.902343 9.023438 21.847656l-15.703125 26.449219 42.734375 42.734375 14.113281-8.390625v45.757812l27.832031 7.042969c4.6875 22.855469 13.558594 44.269531 26.425781 63.78125l-14.707031 24.65625 42.753907 42.753906 24.664062-14.703125c19.503906 12.855469 40.910156 21.726563 63.773438 26.421875l7.027343 27.824219h60.460938l7.035156-27.832031c22.863281-4.695313 44.269531-13.558594 63.773437-26.425781l24.664063 14.707031 42.753906-42.753907-14.703125-24.65625c12.855469-19.503906 21.726563-40.917968 26.421875-63.78125l27.824219-7.035156v-60.453125zm-424.902344-15.140625 14.078125-23.714844-2.335938-4.054687c-4.792968-8.296875-8.503906-17.28125-11.03125-26.695313l-1.214843-4.519531-26.761719-6.824219v-35.570312l26.753906-6.816406 1.214844-4.519532c2.527344-9.414062 6.246094-18.398437 11.03125-26.695312l2.335938-4.054688-14.078126-23.714844 25.148438-25.148437 23.714844 14.078125 4.054687-2.335938c8.296875-4.792968 17.28125-8.503906 26.695313-11.03125l4.519531-1.214843 6.824219-26.761719h35.570312l6.816406 26.753906 4.519532 1.214844c9.414062 2.527344 18.398437 6.246094 26.695312 11.03125l4.054688 2.335938 23.714844-14.078126 25.148437 25.148438-14.078125 23.714844 2.335938 4.054687c4.792968 8.296875 8.503906 17.28125 11.03125 26.695313l1.214843 4.519531 26.761719 6.824219v35.570312l-26.753906 6.816406-1.214844 4.519532c-2.527344 9.414062-6.246094 18.398437-11.03125 26.695312l-2.335938 4.054688 14.078126 23.714844-25.148438 25.148437-23.714844-14.085937-4.054687 2.335937c-8.296875 4.792969-17.28125 8.503906-26.695313 11.03125l-4.519531 1.214844-6.824219 26.769531h-35.570312l-6.816406-26.753906-4.519532-1.214844c-9.414062-2.527344-18.398437-6.246094-26.695312-11.03125l-4.054688-2.335938-23.714844 14.089844zm260.734375-53.378906v-13.039063c58.953125 7.863281 104 58.433594 104 118.824219 0 66.167969-53.832031 120-120 120-60.390625 0-110.960938-45.046875-118.832031-104h13.039062l7.609375-29.832031c4.136719-1.28125 8.167969-2.800781 12.128906-4.472657-1.265624 5.984376-1.945312 12.089844-1.945312 18.304688 0 48.519531 39.480469 88 88 88s88-39.480469 88-88-39.480469-88-88-88c-6.214844 0-12.320312.679688-18.296875 1.953125 1.671875-3.960937 3.191406-7.992187 4.472656-12.128906zm-85.457031 87.007812 19.570312 11.625 42.734375-42.734375-11.617187-19.570312c6.082031-1.640625 12.355469-2.542969 18.769531-2.542969 39.695312 0 72 32.304688 72 72 0 39.703125-32.304688 72-72 72s-72-32.296875-72-72c0-6.414062.902344-12.6875 2.542969-18.777344zm261.457031 36.554688-25.710938 6.496094-.898437 5.09375c-4.261719 24.175781-13.574219 46.664062-27.671875 66.816406l-2.964844 4.242187 13.582032 22.78125-25.136719 25.128907-22.785157-13.582032-4.238281 2.964844c-20.144531 14.105469-42.625 23.417969-66.808593 27.679688l-5.09375.898437-6.503907 25.703125h-35.539062l-6.496094-25.710938-5.09375-.898437c-24.183594-4.261719-46.664063-13.574219-66.808594-27.679687l-4.238281-2.96875-22.785156 13.585937-25.136719-25.128906 13.585937-22.785157-2.96875-4.238281c-14.105468-20.152343-23.410156-42.632812-27.671874-66.816406l-.898438-5.09375-25.71875-6.488281v-38.914063c5.855469 2.847657 11.894531 5.367188 18.175781 7.3125l7.609375 29.824219h31.304688c7.980468 67.847656 65.75 120 134.910156 120 74.992188 0 136-61.007812 136-136 0-69.160156-52.152344-126.929688-120-134.902344v-31.3125l-29.832031-7.609375c-1.9375-6.28125-4.457031-12.328125-7.304688-18.175781h38.90625l6.496094 25.710938 5.09375.898437c24.183594 4.261719 46.664063 13.574219 66.808594 27.671875l4.238281 2.964844 22.785156-13.582032 25.136719 25.136719-13.585937 22.785157 2.96875 4.238281c14.097656 20.144531 23.410156 42.625 27.671874 66.808593l.898438 5.09375 25.71875 6.496094zm0 0"/><path d="m344 288h-16c0 22.054688-17.945312 40-40 40v16c30.878906 0 56-25.128906 56-56zm0 0"/><path d="m340.816406 269.328125c-2.449218-6.902344-6.167968-13.183594-11.074218-18.664063l-11.917969 10.671876c3.503906 3.910156 6.167969 8.398437 7.910156 13.335937zm0 0"/><path d="m280 448h16v16h-16zm0 0"/><path d="m395.476562 406.800781 11.3125-11.3125 11.3125 11.3125-11.3125 11.3125zm0 0"/><path d="m448 280h16v16h-16zm0 0"/><path d="m395.476562 169.210938 11.3125-11.316407 11.3125 11.316407-11.3125 11.3125zm0 0"/><path d="m157.890625 406.796875 11.316406-11.3125 11.3125 11.3125-11.3125 11.3125zm0 0"/></svg>