<svg fill="white" xmlns="http://www.w3.org/2000/svg" xmlns:xlink="http://www.w3.org/1999/xlink" x="0px" y="0px" viewBox="0 0 60 60" xml:space="preserve"><path class="st0" d="M30,0C13.5,0,0,13.5,0,30s13.5,30,30,30s30-13.5,30-30S46.5,0,30,0z M30,58C14.6,58,2,45.4,2,30S14.6,2,30,2s28,12.6,28,28S45.4,58,30,58z"/><path class="st0" d="M33,46h8V14h-8V46z M35,16h4v28h-4V16z"/><path class="st0" d="M19,46h8V14h-8V46z M21,16h4v28h-4V16z"/><rect x="20.6" y="15.4" class="st0" width="5.7" height="29.4"/><rect x="34.2" y="15.4" class="st0" width="5.7" height="29.4"/></svg>
